# xmcd
#
# Track frame offsets:
# 150
# 17486
# 34173
# 49116
# 66472
# 87385
# 107818
# 122629
# 139876
# 158393
# 178485
# 194952
# 223349
# 244303
#
# Disc length: 3552 seconds
#
#
# Revision: 0
# Processed by: cddbd v1.5.1PL0 Copyright (c) Steve Scherf et al.
# Submitted via: FreeRIP 2.931 
#
DISCID=d90dde0e
DTITLE=alberto plaza - acustico
DYEAR=2005
DGENRE=Blues
TTITLE0=Recuérame tu tambien
TTITLE1=bandido
TTITLE2=el favor del viento
TTITLE3=tu taliban
TTITLE4=pequeño rayo de sol
TTITLE5=no seas cruel
TTITLE6=no me creas
TTITLE7=yo quiero ver la luna
TTITLE8=sentencia
TTITLE9=ahora
TTITLE10=voy a cambiar el mundo
TTITLE11=yo te seguire
TTITLE12=pa lante
TTITLE13=adios
EXTD=
EXTT0=
EXTT1=
EXTT2=
EXTT3=
EXTT4=
EXTT5=
EXTT6=
EXTT7=
EXTT8=
EXTT9=
EXTT10=
EXTT11=
EXTT12=
EXTT13=
PLAYORDER=
